<svg width="19" height="16" viewBox="0 0 19 16" fill="none" xmlns="http://www.w3.org/2000/svg">
<path d="M9.39031 2.12588C11.4241 0.480289 14.5669 0.534908 16.5262 2.30378C18.4847 4.07343 18.5522 6.89177 16.7306 8.73008L9.38858 15.3561L2.04833 8.73008C0.226689 6.89177 0.295088 4.06875 2.25266 2.30378C4.2137 0.537249 7.35049 0.477948 9.39031 2.12588ZM15.3003 3.4063C14.0016 2.23434 11.9063 2.18674 10.547 3.28692L9.39118 4.22168L8.23447 3.2877C6.87084 2.18596 4.77993 2.23434 3.47777 3.40786C2.18773 4.57046 2.12279 6.43141 3.31153 7.66111L9.38945 13.1472L15.4674 7.66189C16.657 6.43141 16.592 4.5728 15.3003 3.4063Z" fill="black"/>
</svg>
