<svg width="283" height="35" viewBox="0 0 283 35" fill="none" xmlns="http://www.w3.org/2000/svg">
<path d="M0.05 27H0.68L4.11 17.025H14.085L17.97 27H21.54L12.055 2.605H8.45L0.05 27ZM8.8 3.375L13.875 16.43H4.32L8.8 3.375ZM30.7376 27.56C34.6226 27.56 36.4776 25.635 37.9826 21.225C38.3326 20.21 38.5076 19.125 38.6826 18.075V27H42.0076V0.295H38.6826V10.27C37.7376 9.815 35.7426 8.94 32.8026 8.94C27.0626 8.94 22.4076 10.27 22.4076 18.04C22.4076 23.885 25.6976 27.56 30.7376 27.56ZM25.8376 18.005C25.8376 10.62 28.4626 9.43 32.8026 9.43C35.7426 9.43 37.7376 10.34 38.6826 10.795C38.6476 14.26 38.4026 17.515 37.4226 21.015C36.0926 25.81 33.8176 27 30.7026 27C26.9226 27 25.8376 23.115 25.8376 18.005ZM48.9912 27V9.5H45.6662V27H48.9912ZM47.4162 5.335C48.6762 5.335 49.6912 4.32 49.6912 3.06C49.6912 1.8 48.6762 0.785 47.4162 0.785C46.1562 0.785 45.1412 1.8 45.1412 3.06C45.1412 4.32 46.1562 5.335 47.4162 5.335ZM52.8398 27H56.1648V18.075C56.3398 19.125 56.5148 20.21 56.8648 21.225C58.3698 25.6 60.2248 27.56 64.1098 27.56C69.1848 27.56 72.4398 23.885 72.4398 18.04C72.4398 10.27 67.7848 8.94 62.0448 8.94C59.1048 8.94 57.1098 9.78 56.1648 10.27C56.1648 9.955 56.1648 0.295 56.1648 0.295H52.8398V27ZM56.1648 10.795C57.1098 10.305 59.1048 9.43 62.0448 9.43C66.3848 9.43 69.0098 10.62 69.0098 18.005C69.0098 23.115 67.9248 26.965 64.1448 26.965C61.0298 26.965 58.7548 25.81 57.4248 21.015C56.4448 17.515 56.1998 14.26 56.1648 10.795ZM75.3984 0.994999V27H78.7234V0.994999H75.3984ZM89.1294 27.525C94.9044 27.525 96.3394 22.905 97.1094 18.215V27H100.399V16.01C100.399 9.955 96.8294 9.01 92.3844 9.01C86.2594 9.01 84.2994 10.62 82.9344 12.965L86.2594 14.785C83.1444 15.625 81.7094 17.97 81.7094 20.63C81.7094 27.07 86.2944 27.525 89.1294 27.525ZM89.0944 14.995H97.0044C96.8644 16.955 96.4444 19.02 95.9194 20.945C94.6244 25.74 92.2094 27 89.0944 27C86.9944 27 85.1394 25.565 85.1394 20.98C85.1394 16.605 86.9944 14.995 89.0944 14.995ZM86.8544 14.61C87.1694 11.775 88.5694 9.465 92.3844 9.465C96.7944 9.465 97.0744 10.865 97.0744 14.4H89.0944C88.1844 14.4 87.1694 14.505 86.8544 14.61ZM103.904 9.5V27H107.229C107.229 21.925 108.209 9.535 115.209 9.535C117.274 9.535 118.219 10.83 118.219 12.02C118.219 13.805 116.819 14.785 115.314 15.275L115.489 15.835C117.239 15.31 118.814 14.015 118.814 12.02C118.814 10.55 117.659 8.94 115.174 8.94C109.854 8.94 107.964 15.38 107.229 19.72V9.5H103.904ZM144.63 15.73L136.16 27H136.895L144.98 16.22L153.065 27H157.23L147.045 13.455L155.2 2.605H154.465L146.695 12.965L138.925 2.605H134.76L144.63 15.73ZM163.527 27V9.5H160.202V27H163.527ZM161.952 5.335C163.212 5.335 164.227 4.32 164.227 3.06C164.227 1.8 163.212 0.785 161.952 0.785C160.692 0.785 159.677 1.8 159.677 3.06C159.677 4.32 160.692 5.335 161.952 5.335ZM177.421 27H174.831C172.696 27 170.876 28.715 170.946 30.85C171.016 33.195 172.556 34.7 174.831 34.7C176.441 34.7 177.841 33.825 178.296 32.495C180.361 26.44 186.171 10.27 186.451 9.5H185.821C185.331 10.935 182.496 18.88 180.186 25.425L170.491 9.5H166.676L177.421 27ZM171.541 30.85C171.541 29.03 173.011 27.56 174.831 27.56H179.416C178.786 29.415 178.191 31.06 177.771 32.285C177.386 33.405 176.091 34.105 174.761 34.105C172.696 34.105 171.541 32.215 171.541 30.85ZM187.325 18.25C187.325 24.375 191.84 27.56 197.545 27.56C203.285 27.56 207.765 24.375 207.765 18.25C207.765 12.125 203.285 8.94 197.545 8.94C191.84 8.94 187.325 12.125 187.325 18.25ZM197.545 9.465C201.92 9.465 204.335 12.195 204.335 18.25C204.335 24.235 202.2 27.035 197.545 27.035C192.82 27.035 190.755 24.235 190.755 18.25C190.755 12.195 193.24 9.465 197.545 9.465ZM210.75 27H214.075V18.075C214.25 19.125 214.425 20.21 214.775 21.225C216.28 25.6 218.135 27.56 222.02 27.56C227.095 27.56 230.35 23.885 230.35 18.04C230.35 10.27 225.695 8.94 219.955 8.94C217.015 8.94 215.02 9.78 214.075 10.27C214.075 9.955 214.075 0.295 214.075 0.295H210.75V27ZM214.075 10.795C215.02 10.305 217.015 9.43 219.955 9.43C224.295 9.43 226.92 10.62 226.92 18.005C226.92 23.115 225.835 26.965 222.055 26.965C218.94 26.965 216.665 25.81 215.335 21.015C214.355 17.515 214.11 14.26 214.075 10.795ZM232.784 18.25C232.784 24.375 237.299 27.56 243.004 27.56C248.744 27.56 253.224 24.375 253.224 18.25C253.224 12.125 248.744 8.94 243.004 8.94C237.299 8.94 232.784 12.125 232.784 18.25ZM243.004 9.465C247.379 9.465 249.794 12.195 249.794 18.25C249.794 24.235 247.659 27.035 243.004 27.035C238.279 27.035 236.214 24.235 236.214 18.25C236.214 12.195 238.699 9.465 243.004 9.465ZM256.209 27H259.534C259.534 21.925 260.514 9.535 267.514 9.535C269.614 9.535 271.294 10.795 271.294 14.61V27H274.654V18.95C274.654 13.84 273.569 8.94 267.479 8.94C262.159 8.94 260.269 15.38 259.534 19.72V9.5H256.209V27ZM281.652 27V9.5H278.327V27H281.652ZM280.077 5.335C281.337 5.335 282.352 4.32 282.352 3.06C282.352 1.8 281.337 0.785 280.077 0.785C278.817 0.785 277.802 1.8 277.802 3.06C277.802 4.32 278.817 5.335 280.077 5.335Z" fill="white"/>
</svg>
